HIERARCHY
ROOT Hips
{
	OFFSET -0.001795 -0.223333 0.028219
	CHANNELS 6 Xposition Yposition Zposition Zrotation Yrotation Xrotation 
	JOINT LeftUpLeg
	{
		OFFSET 0.069520 -0.091406 -0.006815
		CHANNELS 3 Zrotation Yrotation Xrotation
		JOINT LeftLeg
		{
			OFFSET 0.034277 -0.375199 -0.004496
			CHANNELS 3 Zrotation Yrotation Xrotation
			JOINT LeftFoot
			{
				OFFSET -0.013596 -0.397961 -0.043693
				CHANNELS 3 Zrotation Yrotation Xrotation
				JOINT LeftToe
				{
					OFFSET 0.026358 -0.055791 0.119288
					CHANNELS 3 Zrotation Yrotation Xrotation
					End Site
					{
						OFFSET 0.000000 0.000000 0.000000
					}
				}
			}
		}
	}
	JOINT RightUpLeg
	{
		OFFSET -0.067670 -0.090522 -0.004320
		CHANNELS 3 Zrotation Yrotation Xrotation
		JOINT RightLeg
		{
			OFFSET -0.038290 -0.382569 -0.008850
			CHANNELS 3 Zrotation Yrotation Xrotation
			JOINT RightFoot
			{
				OFFSET 0.015774 -0.398415 -0.042312
				CHANNELS 3 Zrotation Yrotation Xrotation
				JOINT RightToe
				{
					OFFSET -0.025372 -0.048144 0.123348
					CHANNELS 3 Zrotation Yrotation Xrotation
					End Site
					{
						OFFSET 0.000000 0.000000 0.000000
					}
				}
			}
		}
	}
	JOINT Spine
	{
		OFFSET -0.002533 0.108963 -0.026696
		CHANNELS 3 Zrotation Yrotation Xrotation
		JOINT Spine1
		{
			OFFSET 0.005487 0.135180 0.001092
			CHANNELS 3 Zrotation Yrotation Xrotation
			JOINT Spine2
			{
				OFFSET 0.001457 0.052922 0.025425
				CHANNELS 3 Zrotation Yrotation Xrotation
				JOINT Neck
				{
					OFFSET -0.002778 0.213870 -0.042857
					CHANNELS 3 Zrotation Yrotation Xrotation
					JOINT Head
					{
						OFFSET 0.005152 0.064970 0.051349
						CHANNELS 3 Zrotation Yrotation Xrotation
						End Site
						{
							OFFSET 0.000000 0.000000 0.000000
						}
					}
				}
				JOINT LeftShoulder
				{
					OFFSET 0.078845 0.121749 -0.034090
					CHANNELS 3 Zrotation Yrotation Xrotation
					JOINT LeftArm
					{
						OFFSET 0.090977 0.030469 -0.008868
						CHANNELS 3 Zrotation Yrotation Xrotation
						JOINT LeftForeArm
						{
							OFFSET 0.259612 -0.012772 -0.027456
							CHANNELS 3 Zrotation Yrotation Xrotation
							JOINT LeftHand
							{
								OFFSET 0.249234 0.008986 -0.001171
								CHANNELS 3 Zrotation Yrotation Xrotation
								End Site
								{
									OFFSET 0.000000 0.000000 0.000000
								}
							}
						}
					}
				}
				JOINT RightShoulder
				{
					OFFSET -0.081759 0.118833 -0.038615
					CHANNELS 3 Zrotation Yrotation Xrotation
					JOINT RightArm
					{
						OFFSET -0.096012 0.032551 -0.009143
						CHANNELS 3 Zrotation Yrotation Xrotation
						JOINT RightForeArm
						{
							OFFSET -0.253742 -0.013329 -0.021401
							CHANNELS 3 Zrotation Yrotation Xrotation
							JOINT RightHand
							{
								OFFSET -0.255298 0.007772 -0.005559
								CHANNELS 3 Zrotation Yrotation Xrotation
								End Site
								{
									OFFSET 0.000000 0.000000 0.000000
								}
							}
						}
					}
				}
			}
		}
	}
}
MOTION
Frames: 7
Frame Time: 0.050000
-0.457605 0.936242 -0.439543 -3.519984 41.538137 -5.115167 13.267093 -1.907305 2.015384 -4.955050 -0.552612 13.404430 6.878174 11.878632 1.625297 0.000000 0.000000 0.000000 -4.672526 -0.498298 -14.739257 5.321759 -1.890529 8.704154 3.072162 5.200772 13.171042 0.000000 0.000000 0.000000 -0.852394 -2.853058 23.219834 6.739098 -0.329834 -27.505365 0.090402 3.590781 30.335226 6.614156 3.475239 -41.583150 0.000000 0.000000 0.000000 -22.667358 -4.018855 -8.666928 -42.761220 -10.813884 -0.899709 -26.172338 -27.436222 5.343692 0.000000 0.000000 0.000000 17.391285 -0.005094 5.054008 42.420938 25.780877 1.769163 18.047249 36.716956 9.162683 0.000000 0.000000 0.000000 
-0.446449 0.934518 -0.466273 -3.665934 38.668861 -5.188285 12.813211 -1.735444 2.604374 -6.023595 -0.320010 12.954104 7.355097 12.361259 0.659280 0.000000 0.000000 0.000000 -5.407223 -0.618122 -15.961516 5.314789 -1.796537 8.969073 3.304636 5.085028 14.640697 0.000000 0.000000 0.000000 -1.122017 -2.550946 22.655226 6.643763 -0.347976 -27.263199 -0.786476 2.974140 29.270730 8.372907 2.365638 -41.290557 0.000000 0.000000 0.000000 -22.518673 -3.819583 -7.809807 -41.743605 -11.673453 -0.750630 -24.911705 -27.320881 5.259097 0.000000 0.000000 0.000000 18.370912 -0.009424 4.847395 43.058902 25.374163 1.584872 17.759005 34.595150 8.317907 0.000000 0.000000 0.000000 
-0.432793 0.931584 -0.493882 -3.532346 36.019170 -5.221229 11.782592 -1.480049 3.249678 -6.199621 -0.205279 12.656871 8.469536 13.514587 -1.050669 0.000000 0.000000 0.000000 -6.550367 -0.806689 -16.534558 4.986630 -1.551034 8.562423 2.691442 3.546411 16.113136 0.000000 0.000000 0.000000 -2.102418 -2.151387 22.079141 6.776798 -0.434287 -27.870489 -0.452899 2.499835 29.480352 8.041657 2.179057 -40.381914 0.000000 0.000000 0.000000 -23.486088 -3.886819 -7.431510 -41.006509 -12.568032 -0.536875 -23.851705 -26.931215 5.166649 0.000000 0.000000 0.000000 18.853640 -0.081160 4.545062 43.937713 24.149874 1.094053 16.551989 32.870819 7.376837 0.000000 0.000000 0.000000 
-0.416545 0.928516 -0.522145 -3.309348 33.726503 -5.327294 10.497774 -1.218753 3.989396 -6.981835 -0.012532 11.899753 9.260233 14.773700 -1.605134 0.000000 0.000000 0.000000 -7.402036 -1.001312 -17.815226 4.046325 -1.253121 9.138850 2.391555 2.429648 18.033453 0.000000 0.000000 0.000000 -2.545712 -2.001500 22.216993 6.648132 -0.436858 -28.363232 -0.798799 2.013528 28.960876 7.719036 2.018423 -39.991693 0.000000 0.000000 0.000000 -23.955911 -3.220308 -7.255384 -41.104174 -12.756784 -0.611267 -23.768163 -26.925875 5.301752 0.000000 0.000000 0.000000 19.331903 -0.008132 4.281697 44.370054 22.630854 0.513286 15.487596 31.056107 6.488021 0.000000 0.000000 0.000000 
-0.399495 0.926431 -0.549769 -2.985174 31.326530 -5.652308 9.133286 -0.964478 4.900038 -7.376207 0.150851 10.646429 10.082807 16.290743 -1.794414 0.000000 0.000000 0.000000 -8.354634 -1.160153 -18.364829 3.968654 -1.130339 8.834396 0.980866 -0.431811 19.788616 0.000000 0.000000 0.000000 -3.335922 -1.732609 22.008084 7.155038 -0.580266 -28.785073 -0.755255 1.446371 29.273190 7.563919 1.769874 -39.636770 0.000000 0.000000 0.000000 -25.427452 -3.051577 -7.090066 -40.713472 -12.563999 -0.774102 -23.300455 -26.367097 5.299326 0.000000 0.000000 0.000000 19.231806 0.462841 4.114074 44.916880 21.261872 0.025128 14.591088 30.478717 6.028181 0.000000 0.000000 0.000000 
-0.383714 0.926284 -0.574808 -2.917561 29.044455 -5.980060 7.883153 -0.746656 5.825008 -8.023650 0.317701 9.058702 10.491763 17.353572 -1.421827 0.000000 0.000000 0.000000 -8.610795 -1.107483 -18.627091 3.146975 -0.841753 8.663772 0.622583 -1.460260 20.816322 0.000000 0.000000 0.000000 -4.085591 -1.499910 21.881037 7.548549 -0.693239 -28.808410 -1.126976 1.330599 29.128073 7.339351 1.565201 -38.467317 0.000000 0.000000 0.000000 -25.857138 -2.869102 -6.725397 -40.687330 -11.885593 -1.132646 -23.476012 -26.606480 5.519123 0.000000 0.000000 0.000000 19.664078 0.462291 3.841776 46.382916 19.871370 -0.363902 14.298699 29.968936 5.793322 0.000000 0.000000 0.000000 
-0.370211 0.927710 -0.596441 -3.130680 26.856595 -6.013954 7.034735 -0.580162 6.326816 -8.176389 0.409188 6.951241 10.977403 18.609692 -0.716184 0.000000 0.000000 0.000000 -8.597558 -0.912447 -17.955510 3.270437 -0.773198 7.725910 -1.330247 -4.782998 20.515390 0.000000 0.000000 0.000000 -4.341257 -1.327759 21.533084 7.524199 -0.708863 -28.938303 -1.026000 0.768815 28.805875 7.166452 1.321657 -37.824095 0.000000 0.000000 0.000000 -25.704994 -2.268059 -6.316940 -41.719520 -11.308959 -1.591508 -22.554054 -25.784269 5.285611 0.000000 0.000000 0.000000 18.829369 0.424024 3.245923 48.729426 17.715712 -0.837966 15.466545 29.192289 5.920706 0.000000 0.000000 0.000000 
